<?xml version="1.0" standalone="no"?>
<!DOCTYPE svg PUBLIC "-//W3C//DTD SVG 20010904//EN"
 "http://www.w3.org/TR/2001/REC-SVG-20010904/DTD/svg10.dtd">
<svg version="1.0" xmlns="http://www.w3.org/2000/svg"
 width="592.000000pt" height="592.000000pt" viewBox="0 0 592.000000 592.000000"
 preserveAspectRatio="xMidYMid meet">
<metadata>
Created by potrace 1.14, written by Peter Selinger 2001-2017
</metadata>
<g transform="translate(0.000000,592.000000) scale(0.100000,-0.100000)"
fill="#000000" stroke="none">
<path d="M0 2960 l0 -2960 2960 0 2960 0 0 2960 0 2960 -1378 0 c-758 0 -1382
-3 -1385 -6 -22 -23 -122 -51 -182 -52 -37 -1 -76 -4 -86 -7 -24 -8 -24 -30
-1 -47 46 -33 123 -173 105 -191 -16 -16 -224 74 -256 111 -8 9 -26 56 -41
105 l-28 87 -266 0 -267 0 -1 -168 c-1 -224 -10 -315 -35 -343 -10 -12 -19
-17 -19 -10 0 7 -5 9 -10 6 -6 -4 -8 -11 -5 -16 9 -13 -4 -11 -18 4 -12 12
-33 75 -44 130 -5 28 -17 35 -28 17 -11 -17 -44 -214 -38 -224 3 -5 0 -7 -8
-4 -8 3 -15 14 -17 26 -2 16 -10 22 -28 22 -24 0 -24 2 -26 93 -5 218 1 349
16 388 9 22 16 48 16 59 0 20 -10 20 -945 20 l-945 0 0 -2960z m1820 2782 c0
-47 -3 -63 -12 -60 -21 7 -34 94 -18 123 19 36 30 14 30 -63z m-1529 1 c10
-27 -10 -57 -34 -47 -17 6 -24 54 -10 68 13 12 36 2 44 -21z m-171 -66 c0 -18
-7 -42 -15 -53 -13 -16 -16 -17 -25 -4 -15 22 -12 56 6 74 24 24 34 19 34 -17z
m205 -39 c7 -19 -9 -71 -23 -76 -8 -2 -12 11 -12 42 0 35 4 46 15 46 9 0 18
-6 20 -12z m2101 -124 c5 -18 10 -22 17 -15 8 8 16 6 29 -6 13 -12 18 -31 18
-75 0 -55 -1 -58 -20 -48 -10 6 -17 16 -14 24 3 9 -6 19 -25 27 -16 7 -27 17
-25 21 3 5 10 5 16 2 7 -4 8 -2 4 5 -4 6 -11 9 -16 6 -8 -5 -18 55 -12 74 7
20 21 12 28 -15z m-145 -65 c19 -6 50 -18 70 -27 32 -13 36 -18 30 -41 -6 -20
-14 -26 -37 -27 -16 -1 -57 -4 -90 -7 -52 -5 -65 -2 -83 14 -23 22 -28 68 -9
87 15 15 74 15 119 1z m-188 -84 c4 -8 3 -16 -1 -19 -4 -3 -9 4 -9 15 -2 23 3
25 10 4z"/>
<path d="M1984 5853 c7 -65 25 -111 27 -67 1 21 3 38 14 97 7 36 7 37 -20 37
l-28 0 7 -67z"/>
</g>
</svg>
